<svg xmlns="http://www.w3.org/2000/svg"
     version="1.1"
     xmlns:xlink="http://www.w3.org/1999/xlink"
     xmlns:svgjs="http://svgjs.dev/svgjs"
     width="1500"
     height="329"
     viewBox="0 0 1500 329">
    <g transform="matrix(1,0,0,1,-0.9090909090909918,-0.14850906257927932)">
        <svg viewBox="0 0 396 87"
             data-background-color="#ffffff"
             preserveAspectRatio="xMidYMid meet"
             height="329"
             width="1500"
             xmlns="http://www.w3.org/2000/svg"
             xmlns:xlink="http://www.w3.org/1999/xlink">
            <g id="tight-bounds"
               transform="matrix(1,0,0,1,0.2400000000000091,0.03927139344801844)">
                <svg viewBox="0 0 395.52 86.92145721310393"
                     height="86.92145721310393"
                     width="395.52">
                    <g>
                        <svg viewBox="0 0 563.4412383400704 123.82467003052874"
                             height="86.92145721310393"
                             width="395.52">
                            <g>
                                <svg viewBox="0 0 563.4412383400704 123.82467003052874"
                                     height="123.82467003052874"
                                     width="563.4412383400704">
                                    <g id="textblocktransform">
                                        <svg viewBox="0 0 563.4412383400704 123.82467003052874"
                                             height="123.82467003052874"
                                             width="563.4412383400704"
                                             id="textblock">
                                            <g>
                                                <svg viewBox="0 0 563.4412383400704 81.69003906249999"
                                                     height="81.69003906249999"
                                                     width="563.4412383400704">
                                                    <g>
                                                        <svg>
                                                            <g />
                                                            <g />
                                                        </svg>
                                                    </g>
                                                    <g>
                                                        <svg>
                                                            <g />
                                                            <g>
                                                                <svg />
                                                            </g>
                                                        </svg>
                                                    </g>
                                                    <g id="text-0">
                                                        <svg viewBox="0 0 563.4412383400704 81.69003906249999"
                                                             height="81.69003906249999"
                                                             width="563.4412383400704">
                                                            <g>
                                                                <svg xmlns="http://www.w3.org/2000/svg"
                                                                     xmlns:xlink="http://www.w3.org/1999/xlink"
                                                                     version="1.1"
                                                                     x="0"
                                                                     y="0"
                                                                     viewBox="63.849571274969236 195.172 504.0004448585463 277"
                                                                     enable-background="new 0 0 612 792"
                                                                     xml:space="preserve"
                                                                     height="81.69003906249999"
                                                                     width="148.63471490257047"
                                                                     class="icon-dxe-0"
                                                                     data-fill-palette-color="accent"
                                                                     id="dxe-0">
                                                                    <g fill="#fe5200"
                                                                       data-fill-palette-color="accent">
                                                                        <g fill="#fe5200"
                                                                           data-fill-palette-color="accent">
                                                                            <path fill-rule="evenodd"
                                                                                  clip-rule="evenodd"
                                                                                  d="M563.727 369.18H479.379C480.663 376.916 478.321 383.456 478.505 390.863 478.694 398.598 487.624 407.065 488.956 415.034 493.183 440.326 496.079 453.735 509.488 472.172 489.348 469.451 473.322 459.117 464.406 445.179 455.8 431.715 454.463 423.335 443.437 412.309 437.48 406.354 432.042 402.518 423.012 400.054 402.976 394.593 383.649 384.029 367.861 373.501 365.08 371.646 361.595 369.18 361.595 369.18 356.718 369.18 238.531 369.059 237.919 369.18 235.335 369.687 228.945 379.11 225.898 382.01 222.02 385.707 216.775 387.601 213.983 392.905 211.935 396.795 211.308 401.198 209.556 405.16 204.956 415.575 197.553 427.054 189.131 434.437 184.262 438.709 181.125 440.531 174.034 443.438 170.972 444.695 162.302 447.27 160.874 446.014 160.25 444.373 163.02 442.48 164.695 440.326 171.197 431.968 172.982 421.219 176.875 409.927 181.337 396.986 188.153 384.513 185.726 369.18 155.264 369.18 115.954 369.248 69.007 369.076 61.174 369.047 63.235 357.807 68.742 357.807 114.029 357.807 139.83 357.807 180.386 358.01 164.609 334.078 159.153 294.236 173.13 264.559 175.659 259.19 180.37 254.895 183.003 249.581 187.452 240.598 186.122 230.617 189.812 222.684 196.292 208.756 206.898 197.028 224.877 195.172H234.069C255.285 197.76 267.666 205.38 270.155 216.217 273.858 214.546 279.18 216.873 283.431 216.898 281.124 220.945 278.591 224.768 275.943 228.473 290.561 276.021 281.144 335.87 251.321 357.806H347.174C334.766 346.481 324.709 335.119 317.475 316.306 310.027 296.936 311.149 267.76 320.539 250.262 318.186 245.918 313.661 241.934 311.686 238.345 315.262 237.559 327.346 235.963 327.346 235.963S333.415 225.311 337.9 221.322C347.147 213.097 360.201 211.687 371.263 214.855 381.39 217.753 390.68 224.748 396.117 232.898 400.617 239.648 401.826 248.42 404.969 256.047 407.983 263.369 411.719 270.834 417.223 275.794 420.448 278.697 424.593 280.883 428.118 283.284 453.472 300.546 472.019 320.891 477.551 357.806 491.267 357.819 555.598 357.806 562.302 357.806S569.82 369.18 563.727 369.18M245.447 230.499C253.774 230.594 253.666 216.561 244.525 217.987 236.882 219.179 238.118 230.413 245.447 230.499M351.851 243.857C361.349 247.124 362.658 231.34 352.571 233.696 346.208 235.184 348.083 242.561 351.851 243.857"
                                                                                  fill="#fe5200"
                                                                                  data-fill-palette-color="accent" />
                                                                        </g>
                                                                    </g>
                                                                </svg>
                                                            </g>
                                                            <g transform="matrix(1,0,0,1,167.92123834007046,7.7248640404822595)">
                                                                <svg width="395.52"
                                                                     viewBox="1.07 -31.84 301.44 50.489999999999995"
                                                                     height="66.24031098153547"
                                                                     data-palette-color="#2e30ff">
                                                                    <path d="M24.22 2.39L24.22 2.39 24.22-6.54Q19.58-3.37 17.77-2.34L17.77-2.34Q13.57-0.05 10.4-0.05L10.4-0.05Q6.59-0.05 3.86-2.83L3.86-2.83Q1.07-5.71 1.07-9.42L1.07-9.42Q1.32-13.33 2.73-17.33L2.73-17.33Q5.66-25.83 12.45-29.79L12.45-29.79Q15.82-31.79 20.21-31.79L20.21-31.79Q20.31-31.79 20.41-31.79L20.41-31.79 21.73-31.84Q23.97-31.84 23.78-30.08L23.78-30.08Q19.87-29.88 16.46-28.27 13.04-26.66 10.52-23.95 8.01-21.24 6.57-17.63 5.13-14.01 5.13-10.25 5.13-6.49 7.08-4.83 9.03-3.17 12.11-3.17L12.11-3.17Q14.75-3.17 19.43-5.47L19.43-5.47Q22.41-6.93 23.88-8.79L23.88-8.79Q24.61-9.67 24.61-10.64L24.61-10.64 24.61-17.87Q23.14-17.87 17.8-16.75 12.45-15.63 11.62-15.48L11.62-15.48Q11.38-15.63 11.04-15.8 10.69-15.97 10.64-16.31L10.64-16.31Q10.55-17.04 12.79-18.55L12.79-18.55Q13.33-18.85 19.24-19.7 25.15-20.56 26.76-20.8 28.37-21.04 29.44-21.19L29.44-21.19Q29.93-21.09 30.66-21.22 31.4-21.34 32.03-21.29L32.03-21.29Q33.59-21.24 33.5-19.58L33.5-19.58 29.44-17.92Q28.52-14.94 28.52-6.69L28.52-6.69 28.61 0.59Q28.61 1.56 28.61 2.39L28.61 2.39Q27.15 3.13 25.78 3.13 24.41 3.13 24.22 2.39ZM37.16-9.28L37.16-9.28Q37.16-15.04 42.14-18.55L42.14-18.55Q46.09-21.34 51.66-21.92L51.66-21.92Q51.95-21.92 53.02-21.92 54.1-21.92 55.91-21.29L55.91-21.29Q59.91-19.92 61.37-16.46L61.37-16.46Q61.96-15.09 61.96-14.14 61.96-13.18 61.91-12.79L61.91-12.79Q61.91-6.69 57.27-3.17L57.27-3.17Q52.98 0.05 46.53 0.05L46.53 0.05Q41.89 0.05 39.52-2.1 37.16-4.25 37.16-9.28ZM40.52-8.11L40.52-8.11Q40.52-5.08 42.14-4L42.14-4Q43.36-3.22 46.24-3.22 49.12-3.22 51.32-3.66 53.51-4.1 55.22-5.18L55.22-5.18Q58.88-7.52 58.88-12.45L58.88-12.45Q58.88-15.38 57.32-17.24L57.32-17.24Q55.61-19.24 52.83-19.24L52.83-19.24Q50.93-18.9 49-18.51 47.07-18.12 45.36-16.99L45.36-16.99Q41.65-14.6 40.52-8.11ZM80.76-12.6L80.76-12.6Q86.13-12.6 86.13-9.86L86.13-9.86Q86.13-7.81 83.15-5.08L83.15-5.08Q78.71-1.03 71.19 1.42L71.19 1.42Q70.84 1.42 70.43 0.73 70.01 0.05 69.79-0.32 69.58-0.68 69.48-0.78L69.48-0.78Q75.09-2.64 78.71-5.27L78.71-5.27Q81.15-7.03 81.15-8.15 81.15-9.28 78.27-9.28 75.39-9.28 69.82-7.91L69.82-7.91Q67.28-8.01 65.42-9.72L65.42-9.72Q63.81-11.23 63.81-12.77 63.81-14.31 64.69-15.6 65.57-16.89 67.04-18.02 68.5-19.14 70.45-20.07L70.45-20.07Q75.24-22.36 80.37-22.36L80.37-22.36Q81.88-22.36 83.3-22.07L83.3-22.07Q84.47-22.07 84.66-21.04 84.86-20.02 84.86-17.68L84.86-17.68Q81.98-18.99 78.36-18.99L78.36-18.99Q73.87-18.99 70.94-17.19L70.94-17.19Q67.91-15.43 67.82-12.6L67.82-12.6Q67.82-11.23 69.82-11.23L69.82-11.23 73.38-11.62Q77.97-12.6 80.76-12.6ZM105.85-12.6L105.85-12.6Q111.22-12.6 111.22-9.86L111.22-9.86Q111.22-7.81 108.24-5.08L108.24-5.08Q103.8-1.03 96.28 1.42L96.28 1.42Q95.94 1.42 95.52 0.73 95.11 0.05 94.89-0.32 94.67-0.68 94.57-0.78L94.57-0.78Q100.19-2.64 103.8-5.27L103.8-5.27Q106.24-7.03 106.24-8.15 106.24-9.28 103.36-9.28 100.48-9.28 94.91-7.91L94.91-7.91Q92.38-8.01 90.52-9.72L90.52-9.72Q88.91-11.23 88.91-12.77 88.91-14.31 89.79-15.6 90.67-16.89 92.13-18.02 93.6-19.14 95.55-20.07L95.55-20.07Q100.33-22.36 105.46-22.36L105.46-22.36Q106.97-22.36 108.39-22.07L108.39-22.07Q109.56-22.07 109.76-21.04 109.95-20.02 109.95-17.68L109.95-17.68Q107.07-18.99 103.46-18.99L103.46-18.99Q98.97-18.99 96.04-17.19L96.04-17.19Q93.01-15.43 92.91-12.6L92.91-12.6Q92.91-11.23 94.91-11.23L94.91-11.23 98.48-11.62Q103.07-12.6 105.85-12.6ZM115.57-22.95L118.64-22.95Q119.28-13.82 119.72-1.81L119.72-1.81Q119.42-0.29 117.37-0.29L117.37-0.29Q116.84-0.29 116.27-0.51 115.71-0.73 115.57-1.12L115.57-1.12 115.57-22.95ZM114.1-29.59L114.1-29.59Q114.1-31.3 116.1-31.3L116.1-31.3Q117.42-31.3 118.25-30.71L118.25-30.71Q118.4-30.18 118.4-29.66 118.4-29.15 118.01-28.66L118.01-28.66Q117.62-28.17 116.84-28.17 116.05-28.17 115.27-28.54 114.49-28.91 114.1-29.59ZM126.5-19.58L126.5-19.58Q133.14-21.88 137.98-21.88L137.98-21.88Q144.13-21.88 146.18-18.65L146.18-18.65Q147.11-17.14 147.11-15.38L147.11-15.38Q147.11-12.94 145.57-10.35 144.03-7.76 141.49-5.66L141.49-5.66Q135.58-0.83 127.14 0.34L127.14 0.34Q127.14 0.88 127.16 2.08 127.18 3.27 127.21 4.74 127.23 6.2 127.26 7.86 127.28 9.52 127.33 11.04L127.33 11.04Q127.48 14.79 127.55 15.33 127.62 15.87 127.62 16.21L127.62 16.21Q127.62 17.43 126.84 18.04 126.06 18.65 124.79 18.65L124.79 18.65Q124.55 18.65 124.3 18.65L124.3 18.65 123.52-20.61Q123.96-21.24 124.69-21.19 125.43-21.14 125.87-20.8 126.31-20.46 126.5-19.58ZM140.76-17.87L140.76-17.87Q139.15-18.7 137.32-18.7 135.49-18.7 133.68-18.36L133.68-18.36Q129.58-17.58 127.62-14.89L127.62-14.89Q126.75-13.62 126.75-11.77L126.75-11.77Q126.75-11.57 126.75-11.38L126.75-11.38 126.75-2.93Q136.8-5.18 141-9.18L141-9.18Q143.44-11.47 143.44-13.92L143.44-13.92Q143.44-16.5 140.76-17.87ZM154.09-29L154.09-29Q156.77-31.59 163.8-31.59L163.8-31.59Q168.2-31.59 171.18-30.71 174.15-29.83 175.64-28.86 177.13-27.88 177.13-26.71L177.13-26.71Q177.13-24.02 170.88-21.39L170.88-21.39Q169.96-20.95 166.03-19.6 162.09-18.26 160.73-17.77L160.73-17.77Q157.75-16.65 156.77-16.02L156.77-16.02Q156.77-15.77 156.97-15.6 157.16-15.43 157.9-15.01 158.63-14.6 160.09-13.84 161.56-13.09 164.15-11.67L164.15-11.67Q171.86-7.47 180.01-2.69L180.01-2.69Q180.4-2.39 181.04-1.88 181.67-1.37 181.67-0.76 181.67-0.15 181.28 0.1 180.89 0.34 180.36 0.46 179.82 0.59 179.23 0.59L179.23 0.59 178.26 0.59Q177.28 0.59 174.18-1.51 171.08-3.61 168.81-5.18 166.54-6.74 164.19-8.2L164.19-8.2Q158.68-11.77 155.45-12.84L155.45-12.84 155.45-1.66Q155.45-0.68 153.79-0.68L153.79-0.68 153.26-0.68Q152.23-0.68 151.74-1.71L151.74-1.71Q151.06-3.27 151.06-7.47L151.06-7.47 151.21-17.29Q151.21-24.51 150.57-29.98L150.57-29.98Q151.74-31.98 153.45-29.83L153.45-29.83Q153.84-29.35 154.09-29ZM170.59-28.42L170.59-28.42 167.42-28.47Q156.38-28.47 154.72-25.93L154.72-25.93Q154.23-25.24 154.23-24.19 154.23-23.14 154.33-22.36L154.33-22.36Q154.57-20.36 155.45-19.48L155.45-19.48Q155.6-19.43 155.97-19.43 156.33-19.43 157.33-19.63 158.33-19.82 160.02-20.34 161.7-20.85 163.61-21.58 165.51-22.31 167.27-23.1L167.27-23.1Q172.79-25.59 172.79-27.15L172.79-27.15Q172.79-28.03 170.59-28.42ZM186.51-9.28L186.51-9.28Q186.51-15.04 191.49-18.55L191.49-18.55Q195.44-21.34 201.01-21.92L201.01-21.92Q201.3-21.92 202.38-21.92 203.45-21.92 205.26-21.29L205.26-21.29Q209.26-19.92 210.72-16.46L210.72-16.46Q211.31-15.09 211.31-14.14 211.31-13.18 211.26-12.79L211.26-12.79Q211.26-6.69 206.62-3.17L206.62-3.17Q202.33 0.05 195.88 0.05L195.88 0.05Q191.24 0.05 188.87-2.1 186.51-4.25 186.51-9.28ZM189.88-8.11L189.88-8.11Q189.88-5.08 191.49-4L191.49-4Q192.71-3.22 195.59-3.22 198.47-3.22 200.67-3.66 202.86-4.1 204.57-5.18L204.57-5.18Q208.23-7.52 208.23-12.45L208.23-12.45Q208.23-15.38 206.67-17.24L206.67-17.24Q204.96-19.24 202.18-19.24L202.18-19.24Q200.28-18.9 198.35-18.51 196.42-18.12 194.71-16.99L194.71-16.99Q191-14.6 189.88-8.11ZM214.63-9.28L214.63-9.28Q214.63-15.04 219.61-18.55L219.61-18.55Q223.56-21.34 229.13-21.92L229.13-21.92Q229.42-21.92 230.5-21.92 231.57-21.92 233.38-21.29L233.38-21.29Q237.38-19.92 238.85-16.46L238.85-16.46Q239.43-15.09 239.43-14.14 239.43-13.18 239.38-12.79L239.38-12.79Q239.38-6.69 234.75-3.17L234.75-3.17Q230.45 0.05 224 0.05L224 0.05Q219.36 0.05 217-2.1 214.63-4.25 214.63-9.28ZM218-8.11L218-8.11Q218-5.08 219.61-4L219.61-4Q220.83-3.22 223.71-3.22 226.59-3.22 228.79-3.66 230.99-4.1 232.69-5.18L232.69-5.18Q236.36-7.52 236.36-12.45L236.36-12.45Q236.36-15.38 234.79-17.24L234.79-17.24Q233.09-19.24 230.3-19.24L230.3-19.24Q228.4-18.9 226.47-18.51 224.54-18.12 222.83-16.99L222.83-16.99Q219.12-14.6 218-8.11ZM245.58-0.78L245.58-0.78Q243.58 0.05 242.92 0.05 242.26 0.05 242.02-0.1 241.77-0.24 241.48-0.78L241.48-0.78Q241.48-2.39 241.6-4.83 241.73-7.28 241.82-10.06 241.92-12.84 241.92-15.67 241.92-18.51 241.63-20.85L241.63-20.85Q241.63-22.41 243.73-22.41L243.73-22.41Q244.22-22.41 244.48-20.65 244.75-18.9 244.87-17.92 245-16.94 245.09-16.5L245.09-16.5Q246.36-18.8 250.12-20.12L250.12-20.12Q252.13-20.75 253.88-20.75 255.64-20.75 256.98-20.34 258.33-19.92 259.28-18.82 260.23-17.72 260.23-15.92L260.23-15.92Q261.5-18.31 265.94-20.21L265.94-20.21Q270-22.02 273.22-22.02L273.22-22.02Q277.86-22.02 277.76-18.51L277.76-18.51 278.79-0.34Q278.79-0.1 277.37 0L277.37 0Q274.64 0.2 274.64-0.49L274.64-0.49Q274.59-1.46 274.59-2.44L274.59-2.44 274.83-10.3Q274.83-15.82 273.76-19.04L273.76-19.04Q270.53-18.8 268.8-17.99 267.07-17.19 265.75-15.99 264.43-14.79 263.41-12.79L263.41-12.79Q261.11-8.3 261.11-0.88L261.11-0.88Q260.82 0.15 259.21 0.15L259.21 0.15Q258.13 0.15 257.45-0.22 256.76-0.59 256.91-0.88L256.91-0.88Q257.84-6.05 257.84-8.94L257.84-8.94Q257.84-11.23 257.37-13.31 256.91-15.38 256.23-18.07L256.23-18.07Q249.2-18.07 246.75-12.45L246.75-12.45Q245.68-9.96 245.56-7.79 245.44-5.62 245.44-4.08 245.44-2.54 245.58-0.78ZM297.14-12.6L297.14-12.6Q302.51-12.6 302.51-9.86L302.51-9.86Q302.51-7.81 299.54-5.08L299.54-5.08Q295.09-1.03 287.57 1.42L287.57 1.42Q287.23 1.42 286.82 0.73 286.4 0.05 286.18-0.32 285.96-0.68 285.86-0.78L285.86-0.78Q291.48-2.64 295.09-5.27L295.09-5.27Q297.53-7.03 297.53-8.15 297.53-9.28 294.65-9.28 291.77-9.28 286.21-7.91L286.21-7.91Q283.67-8.01 281.81-9.72L281.81-9.72Q280.2-11.23 280.2-12.77 280.2-14.31 281.08-15.6 281.96-16.89 283.42-18.02 284.89-19.14 286.84-20.07L286.84-20.07Q291.63-22.36 296.75-22.36L296.75-22.36Q298.27-22.36 299.68-22.07L299.68-22.07Q300.85-22.07 301.05-21.04 301.24-20.02 301.24-17.68L301.24-17.68Q298.36-18.99 294.75-18.99L294.75-18.99Q290.26-18.99 287.33-17.19L287.33-17.19Q284.3-15.43 284.2-12.6L284.2-12.6Q284.2-11.23 286.21-11.23L286.21-11.23 289.77-11.62Q294.36-12.6 297.14-12.6Z"
                                                                          opacity="1"
                                                                          transform="matrix(1,0,0,1,0,0)"
                                                                          fill="#2e30ff"
                                                                          class="wordmark-text-0"
                                                                          data-fill-palette-color="primary" />
                                                                </svg>
                                                            </g>
                                                        </svg>
                                                    </g>
                                                </svg>
                                            </g>
                                            <g transform="matrix(1,0,0,1,107.61727652295346,97.32778671777696)">
                                                <svg viewBox="0 0 348.2066852941635 26.496883312751777"
                                                     height="26.496883312751777"
                                                     width="348.2066852941635">
                                                    <g transform="matrix(1,0,0,1,0,0)">
                                                        <svg width="348.2066852941635"
                                                             viewBox="1.65 -39.45 522.65 39.78"
                                                             height="26.496883312751777"
                                                             data-palette-color="#2e30ff">
                                                            <path d="M1.65-29.63L7.88 0 14.75 0 20.28-24.58 25.88 0 32.7 0 38.88-29.63 33.65-29.63 29.18-3.43 29.1-3.43 22.9-29.63 17.73-29.63 11.58-3.4 11.5-3.4 6.88-29.63 1.65-29.63ZM54.85 0.25L54.85 0.25 54.85-3.1Q51.05-3.1 48.92-5.88L48.92-5.88Q46.77-8.6 46.77-14.88L46.77-14.88Q46.77-21.5 49-24.05L49-24.05Q51.2-26.58 54.77-26.58L54.77-26.58Q58.45-26.58 60.5-24.18L60.5-24.18Q62.27-21.93 62.47-16.48L62.47-16.48 46.22-16.48 46.22-13.33 67.47-13.33Q67.57-14.08 67.57-14.95L67.57-14.95Q67.57-22.38 64.62-26.15L64.62-26.15Q61.65-29.93 54.77-29.93L54.77-29.93Q48.1-29.93 45-26.15L45-26.15Q41.87-22.4 41.87-14.88L41.87-14.88Q41.87-7.78 44.92-3.75L44.92-3.75Q47.95 0.25 54.85 0.25ZM54.85-3.1L54.85-3.1 54.85 0.25Q58.6 0.25 61.05-0.73L61.05-0.73Q63.5-1.7 65.05-3.85L65.05-3.85Q66.57-5.98 67-9.03L67-9.03 62.45-10.25Q62.02-8.05 61.17-6.3L61.17-6.3Q60.27-4.55 58.65-3.83L58.65-3.83Q57.02-3.1 54.85-3.1ZM104.24-4.88L104.57 0 109.27 0 109.27-39.25 104.24-39.25 104.24-4.88ZM94.87 0.2L94.87 0.2Q99.72 0.2 103.07-2.24 106.42-4.67 106.42-7.3L106.42-7.3 104.24-10.03Q104.24-7.43 101.98-5.38 99.72-3.33 96.57-3.33L96.57-3.33Q93.22-3.33 91.27-5.76 89.32-8.2 89.32-14.85L89.32-14.85Q89.32-21.5 91.27-23.94 93.22-26.38 96.57-26.38L96.57-26.38Q99.72-26.38 101.98-24.34 104.24-22.3 104.24-19.73L104.24-19.73 106.42-22.38Q106.42-25.03 103.07-27.46 99.72-29.9 94.87-29.9L94.87-29.9Q89.54-29.9 86.88-26.18 84.22-22.45 84.22-14.88L84.22-14.88Q84.22-7.3 86.88-3.55 89.54 0.2 94.87 0.2ZM126.79 0.2L126.79 0.2Q133.44 0.2 136.63-3.49 139.81-7.18 139.81-14.9L139.81-14.9Q139.81-22.63 136.63-26.29 133.44-29.95 126.79-29.95L126.79-29.95Q120.17-29.95 116.97-26.29 113.77-22.63 113.77-14.9L113.77-14.9Q113.77-7.18 116.97-3.49 120.17 0.2 126.79 0.2ZM126.79-3.28L126.79-3.28Q123.31-3.28 121.06-5.71 118.81-8.15 118.81-14.88L118.81-14.88Q118.81-21.6 121.06-24.03 123.31-26.45 126.79-26.45L126.79-26.45Q130.26-26.45 132.51-24.03 134.76-21.6 134.76-14.88L134.76-14.88Q134.76-8.15 132.51-5.71 130.26-3.28 126.79-3.28ZM144.71-29.63L144.71 0 149.76 0 149.76-23.9 148.69-29.63 144.71-29.63ZM163.29-16.93L163.29 0 168.34 0 168.34-16.95Q168.34-23 166.2-26.46 164.06-29.93 158.91-29.93L158.91-29.93Q153.74-29.93 150.45-26.7 147.16-23.48 147.16-19.83L147.16-19.83 149.61-18.28Q149.61-21.78 151.79-24.08 153.96-26.38 157.09-26.38L157.09-26.38Q160.21-26.38 161.75-24.23 163.29-22.08 163.29-16.93L163.29-16.93ZM172.71-33.75L172.71-23.58 176.44-23.58 176.44-33.75 172.71-33.75ZM193.23 0.33L193.23 0.33Q195.98 0.33 198.48-0.3L198.48-0.3 198.48-3.73Q196.76-3.15 194.93-3.15L194.93-3.15Q192.88-3.15 191.76-4.03 190.63-4.9 190.63-7.63L190.63-7.63 190.63-26.08 200.43-26.08 200.43-29.63 190.63-29.63 190.63-36.33 185.56-36.33 185.56-29.63 178.63-29.63 178.63-26.08 185.56-26.08 185.56-6.45Q185.56-2.55 187.76-1.11 189.96 0.33 193.23 0.33ZM217.35-29.63L217.35 0 222.4 0 222.4-23.9 221.33-29.63 217.35-29.63ZM235.93-16.93L235.93 0 240.98 0 240.98-16.95Q240.98-23 238.84-26.46 236.7-29.93 231.55-29.93L231.55-29.93Q226.38-29.93 223.09-26.7 219.8-23.48 219.8-19.83L219.8-19.83 222.25-18.28Q222.25-21.78 224.43-24.08 226.6-26.38 229.73-26.38L229.73-26.38Q232.85-26.38 234.39-24.23 235.93-22.08 235.93-16.93L235.93-16.93ZM258.57 0.25L258.57 0.25 258.57-3.1Q254.78-3.1 252.65-5.88L252.65-5.88Q250.5-8.6 250.5-14.88L250.5-14.88Q250.5-21.5 252.73-24.05L252.73-24.05Q254.93-26.58 258.5-26.58L258.5-26.58Q262.18-26.58 264.23-24.18L264.23-24.18Q266-21.93 266.2-16.48L266.2-16.48 249.95-16.48 249.95-13.33 271.2-13.33Q271.3-14.08 271.3-14.95L271.3-14.95Q271.3-22.38 268.35-26.15L268.35-26.15Q265.38-29.93 258.5-29.93L258.5-29.93Q251.83-29.93 248.73-26.15L248.73-26.15Q245.6-22.4 245.6-14.88L245.6-14.88Q245.6-7.78 248.65-3.75L248.65-3.75Q251.68 0.25 258.57 0.25ZM258.57-3.1L258.57-3.1 258.57 0.25Q262.32 0.25 264.78-0.73L264.78-0.73Q267.23-1.7 268.78-3.85L268.78-3.85Q270.3-5.98 270.73-9.03L270.73-9.03 266.18-10.25Q265.75-8.05 264.9-6.3L264.9-6.3Q264-4.55 262.38-3.83L262.38-3.83Q260.75-3.1 258.57-3.1ZM288.5 0.25L288.5 0.25 288.5-3.1Q284.7-3.1 282.57-5.88L282.57-5.88Q280.42-8.6 280.42-14.88L280.42-14.88Q280.42-21.5 282.65-24.05L282.65-24.05Q284.85-26.58 288.42-26.58L288.42-26.58Q292.1-26.58 294.15-24.18L294.15-24.18Q295.92-21.93 296.12-16.48L296.12-16.48 279.87-16.48 279.87-13.33 301.12-13.33Q301.22-14.08 301.22-14.95L301.22-14.95Q301.22-22.38 298.27-26.15L298.27-26.15Q295.3-29.93 288.42-29.93L288.42-29.93Q281.75-29.93 278.65-26.15L278.65-26.15Q275.52-22.4 275.52-14.88L275.52-14.88Q275.52-7.78 278.57-3.75L278.57-3.75Q281.6 0.25 288.5 0.25ZM288.5-3.1L288.5-3.1 288.5 0.25Q292.25 0.25 294.7-0.73L294.7-0.73Q297.15-1.7 298.7-3.85L298.7-3.85Q300.22-5.98 300.65-9.03L300.65-9.03 296.1-10.25Q295.67-8.05 294.82-6.3L294.82-6.3Q293.92-4.55 292.3-3.83L292.3-3.83Q290.67-3.1 288.5-3.1ZM325.42-4.88L325.75 0 330.45 0 330.45-39.25 325.42-39.25 325.42-4.88ZM316.05 0.2L316.05 0.2Q320.9 0.2 324.25-2.24 327.6-4.67 327.6-7.3L327.6-7.3 325.42-10.03Q325.42-7.43 323.16-5.38 320.9-3.33 317.75-3.33L317.75-3.33Q314.4-3.33 312.45-5.76 310.5-8.2 310.5-14.85L310.5-14.85Q310.5-21.5 312.45-23.94 314.4-26.38 317.75-26.38L317.75-26.38Q320.9-26.38 323.16-24.34 325.42-22.3 325.42-19.73L325.42-19.73 327.6-22.38Q327.6-25.03 324.25-27.46 320.9-29.9 316.05-29.9L316.05-29.9Q310.72-29.9 308.06-26.18 305.4-22.45 305.4-14.88L305.4-14.88Q305.4-7.3 308.06-3.55 310.72 0.2 316.05 0.2ZM352.59-26.1L352.59 0 357.64 0 357.64-26.1 366.12-26.1 366.12-29.63 357.64-29.63 357.64-31.48Q357.64-34.25 359.77-35.15 361.89-36.05 365.69-36.05L365.69-36.05 366.44-36.05 366.44-39.45 365.59-39.45Q359.67-39.45 356.13-37.69 352.59-35.93 352.59-31.5L352.59-31.5 352.59-29.63 346.57-29.63 346.57-26.1 352.59-26.1ZM388.86-15.83L388.86-15.83 393.91-15.83Q393.91-23.15 391.95-26.51 389.99-29.88 384.94-29.88L384.94-29.88Q380.04-29.88 377.14-27.2 374.24-24.53 374.24-20.73L374.24-20.73 376.19-19.3Q376.19-22.03 378.04-24.19 379.89-26.35 383.11-26.35L383.11-26.35Q385.94-26.35 387.4-24.14 388.86-21.93 388.86-15.83ZM371.16-29.63L371.16 0 376.21 0 376.21-23.9 375.14-29.63 371.16-29.63ZM400.11-29.65L400.11 0 405.19 0 405.19-29.65 400.11-29.65ZM405.19-37.75L400.11-37.75 400.11-33.27 405.19-33.27 405.19-37.75ZM423.73 0.25L423.73 0.25 423.73-3.1Q419.93-3.1 417.81-5.88L417.81-5.88Q415.66-8.6 415.66-14.88L415.66-14.88Q415.66-21.5 417.88-24.05L417.88-24.05Q420.08-26.58 423.66-26.58L423.66-26.58Q427.33-26.58 429.38-24.18L429.38-24.18Q431.16-21.93 431.36-16.48L431.36-16.48 415.11-16.48 415.11-13.33 436.36-13.33Q436.46-14.08 436.46-14.95L436.46-14.95Q436.46-22.38 433.51-26.15L433.51-26.15Q430.53-29.93 423.66-29.93L423.66-29.93Q416.98-29.93 413.88-26.15L413.88-26.15Q410.76-22.4 410.76-14.88L410.76-14.88Q410.76-7.78 413.81-3.75L413.81-3.75Q416.83 0.25 423.73 0.25ZM423.73-3.1L423.73-3.1 423.73 0.25Q427.48 0.25 429.93-0.73L429.93-0.73Q432.38-1.7 433.93-3.85L433.93-3.85Q435.46-5.98 435.88-9.03L435.88-9.03 431.33-10.25Q430.91-8.05 430.06-6.3L430.06-6.3Q429.16-4.55 427.53-3.83L427.53-3.83Q425.91-3.1 423.73-3.1ZM441.53-29.63L441.53 0 446.58 0 446.58-23.9 445.51-29.63 441.53-29.63ZM460.11-16.93L460.11 0 465.16 0 465.16-16.95Q465.16-23 463.02-26.46 460.88-29.93 455.73-29.93L455.73-29.93Q450.56-29.93 447.27-26.7 443.98-23.48 443.98-19.83L443.98-19.83 446.43-18.28Q446.43-21.78 448.61-24.08 450.78-26.38 453.91-26.38L453.91-26.38Q457.03-26.38 458.57-24.23 460.11-22.08 460.11-16.93L460.11-16.93ZM489.75-4.88L490.08 0 494.78 0 494.78-39.25 489.75-39.25 489.75-4.88ZM480.38 0.2L480.38 0.2Q485.23 0.2 488.58-2.24 491.93-4.67 491.93-7.3L491.93-7.3 489.75-10.03Q489.75-7.43 487.49-5.38 485.23-3.33 482.08-3.33L482.08-3.33Q478.73-3.33 476.78-5.76 474.83-8.2 474.83-14.85L474.83-14.85Q474.83-21.5 476.78-23.94 478.73-26.38 482.08-26.38L482.08-26.38Q485.23-26.38 487.49-24.34 489.75-22.3 489.75-19.73L489.75-19.73 491.93-22.38Q491.93-25.03 488.58-27.46 485.23-29.9 480.38-29.9L480.38-29.9Q475.05-29.9 472.39-26.18 469.73-22.45 469.73-14.88L469.73-14.88Q469.73-7.3 472.39-3.55 475.05 0.2 480.38 0.2ZM512.35 0.2L512.35 0.2Q518.2 0.2 521.25-1.8 524.3-3.8 524.3-7.9L524.3-7.9Q524.3-12.35 521.24-14.04 518.18-15.73 513.65-16.65L513.65-16.65Q509.83-17.53 507.34-18.48 504.85-19.43 504.85-22.03L504.85-22.03Q504.85-24.1 506.49-25.33 508.13-26.55 511.5-26.55L511.5-26.55Q515-26.55 517.04-24.85 519.08-23.15 519.5-19.88L519.5-19.88 523.98-21.4Q523.25-25.95 520.11-27.91 516.98-29.88 511.55-29.88L511.55-29.88Q506.1-29.88 502.98-27.86 499.85-25.85 499.85-22L499.85-22Q499.85-17.78 502.69-15.96 505.53-14.15 510.05-13.18L510.05-13.18Q514.03-12.3 516.65-11.34 519.28-10.38 519.28-7.55L519.28-7.55Q519.28-5.58 517.56-4.36 515.85-3.15 512.43-3.15L512.43-3.15Q508.8-3.15 506.66-4.78 504.53-6.4 504.1-10.15L504.1-10.15 499.63-8.63Q500.4-3.65 503.7-1.73 507 0.2 512.35 0.2Z"
                                                                  opacity="1"
                                                                  transform="matrix(1,0,0,1,0,0)"
                                                                  fill="#2e30ff"
                                                                  class="slogan-text-1"
                                                                  data-fill-palette-color="secondary"
                                                                  id="text-1" />
                                                        </svg>
                                                    </g>
                                                </svg>
                                            </g>
                                        </svg>
                                    </g>
                                </svg>
                            </g>
                        </svg>
                    </g>
                    <defs />
                </svg>
                <rect width="395.52"
                      height="86.92145721310393"
                      fill="none"
                      stroke="none"
                      visibility="hidden" />
            </g>
        </svg>
    </g>
</svg>